<svg width="373" height="20" viewBox="0 0 373 20" fill="none" xmlns="http://www.w3.org/2000/svg">
<path d="M6.78906 16.9248C7.611 16.9248 8.28646 16.8394 8.81543 16.6685C9.75944 16.3511 10.5326 15.7407 11.1348 14.8374C11.6149 14.1131 11.9608 13.1854 12.1724 12.0542C12.2944 11.3787 12.3555 10.7521 12.3555 10.1743C12.3555 7.95264 11.9119 6.22738 11.0249 4.99854C10.146 3.76969 8.72591 3.15527 6.76465 3.15527H2.45557V16.9248H6.78906ZM0.0141602 1.06787H7.27734C9.74316 1.06787 11.6556 1.94271 13.0146 3.69238C14.2272 5.27116 14.8335 7.29346 14.8335 9.75928C14.8335 11.6636 14.4754 13.3848 13.7593 14.9229C12.4979 17.641 10.3291 19 7.25293 19H0.0141602V1.06787ZM18.2026 1.06787H31.2764V3.26514H20.5708V8.70947H30.4707V10.7847H20.5708V16.8638H31.4595V19H18.2026V1.06787ZM36.2324 13.2139C36.2894 14.2311 36.5295 15.0571 36.9526 15.6919C37.7583 16.88 39.1784 17.4741 41.2129 17.4741C42.1243 17.4741 42.9544 17.3439 43.7031 17.0835C45.1517 16.5789 45.876 15.6756 45.876 14.3735C45.876 13.397 45.5708 12.7012 44.9604 12.2861C44.342 11.8792 43.3735 11.5252 42.0552 11.2241L39.626 10.6748C38.0391 10.3167 36.916 9.92204 36.2568 9.49072C35.1175 8.74202 34.5479 7.62305 34.5479 6.13379C34.5479 4.52246 35.1053 3.20003 36.2202 2.1665C37.3351 1.13298 38.9139 0.616211 40.9565 0.616211C42.8364 0.616211 44.4315 1.07194 45.7417 1.9834C47.0601 2.88672 47.7192 4.33529 47.7192 6.3291H45.4365C45.3145 5.36882 45.054 4.63232 44.6553 4.11963C43.9147 3.18376 42.6574 2.71582 40.8833 2.71582C39.451 2.71582 38.4215 3.01693 37.7949 3.61914C37.1683 4.22135 36.855 4.92122 36.855 5.71875C36.855 6.59766 37.2212 7.24056 37.9536 7.64746C38.4338 7.90788 39.5202 8.2334 41.2129 8.62402L43.7275 9.19775C44.9401 9.47445 45.876 9.85286 46.5352 10.333C47.6745 11.1712 48.2441 12.3879 48.2441 13.9829C48.2441 15.9686 47.5199 17.3887 46.0713 18.2432C44.6309 19.0977 42.9544 19.5249 41.042 19.5249C38.8122 19.5249 37.0666 18.9552 35.8052 17.8159C34.5438 16.6847 33.9253 15.1507 33.9497 13.2139H36.2324ZM51.8696 1.06787H54.3232V19H51.8696V1.06787ZM66.0298 0.604004C67.7144 0.604004 69.1711 0.929525 70.3999 1.58057C72.1821 2.51644 73.2726 4.15625 73.6714 6.5H71.2666C70.9736 5.18978 70.3674 4.23763 69.4478 3.64355C68.5282 3.04134 67.3685 2.74023 65.9688 2.74023C64.3086 2.74023 62.9089 3.36279 61.7695 4.60791C60.6383 5.85303 60.0728 7.7085 60.0728 10.1743C60.0728 12.3065 60.5407 14.0439 61.4766 15.3867C62.4124 16.7214 63.9383 17.3887 66.0542 17.3887C67.6737 17.3887 69.0124 16.9207 70.0703 15.9849C71.1364 15.0409 71.6816 13.519 71.7061 11.4194H66.0908V9.40527H73.9644V19H72.4019L71.8159 16.6929C70.994 17.5962 70.2656 18.2228 69.6309 18.5728C68.5648 19.175 67.2098 19.4761 65.5659 19.4761C63.4419 19.4761 61.6149 18.7884 60.085 17.4131C58.4167 15.6878 57.5825 13.3197 57.5825 10.3086C57.5825 7.30566 58.3963 4.91715 60.0239 3.14307C61.5701 1.45036 63.5721 0.604004 66.0298 0.604004ZM77.7363 1.06787H80.605L89.6626 15.5942V1.06787H91.9697V19H89.2476L80.0557 4.48584V19H77.7363V1.06787ZM96.0347 16.3389H98.5859V19H96.0347V16.3389ZM116.457 8.64844C117.482 8.64844 118.28 8.50602 118.85 8.22119C119.745 7.7736 120.192 6.96794 120.192 5.8042C120.192 4.63232 119.716 3.84294 118.764 3.43604C118.227 3.20817 117.43 3.09424 116.372 3.09424H112.038V8.64844H116.457ZM117.275 16.9248C118.764 16.9248 119.826 16.4935 120.461 15.6309C120.86 15.0856 121.059 14.4264 121.059 13.6533C121.059 12.3512 120.477 11.4642 119.313 10.9922C118.695 10.7399 117.877 10.6138 116.86 10.6138H112.038V16.9248H117.275ZM109.658 1.06787H117.36C119.46 1.06787 120.953 1.6945 121.84 2.94775C122.361 3.68831 122.622 4.54281 122.622 5.51123C122.622 6.64242 122.3 7.57015 121.657 8.29443C121.324 8.67692 120.843 9.02686 120.217 9.34424C121.136 9.69417 121.824 10.0889 122.28 10.5283C123.085 11.3096 123.488 12.3879 123.488 13.7632C123.488 14.9188 123.126 15.9645 122.402 16.9004C121.319 18.3001 119.598 19 117.238 19H109.658V1.06787ZM129.03 1.06787V12.1519C129.03 13.4539 129.274 14.5363 129.763 15.3989C130.487 16.701 131.708 17.3521 133.425 17.3521C135.484 17.3521 136.883 16.6481 137.624 15.2402C138.023 14.4753 138.222 13.4458 138.222 12.1519V1.06787H140.688V11.1387C140.688 13.3441 140.391 15.0409 139.797 16.229C138.706 18.3937 136.647 19.4761 133.62 19.4761C130.593 19.4761 128.538 18.3937 127.456 16.229C126.861 15.0409 126.564 13.3441 126.564 11.1387V1.06787H129.03ZM145.009 1.06787H147.463V19H145.009V1.06787ZM151.418 1.06787H153.847V16.8638H162.929V19H151.418V1.06787ZM172.219 16.9248C173.041 16.9248 173.716 16.8394 174.245 16.6685C175.189 16.3511 175.962 15.7407 176.564 14.8374C177.045 14.1131 177.39 13.1854 177.602 12.0542C177.724 11.3787 177.785 10.7521 177.785 10.1743C177.785 7.95264 177.342 6.22738 176.455 4.99854C175.576 3.76969 174.156 3.15527 172.194 3.15527H167.885V16.9248H172.219ZM165.444 1.06787H172.707C175.173 1.06787 177.085 1.94271 178.444 3.69238C179.657 5.27116 180.263 7.29346 180.263 9.75928C180.263 11.6636 179.905 13.3848 179.189 14.9229C177.928 17.641 175.759 19 172.683 19H165.444V1.06787ZM183.632 16.3389H186.184V19H183.632V16.3389ZM197.548 1.06787H205.617C207.212 1.06787 208.498 1.51953 209.475 2.42285C210.451 3.31803 210.939 4.57943 210.939 6.20703C210.939 7.60677 210.504 8.82747 209.633 9.86914C208.763 10.9027 207.424 11.4194 205.617 11.4194H199.978V19H197.548V1.06787ZM208.486 6.21924C208.486 4.90088 207.998 4.0057 207.021 3.53369C206.484 3.28141 205.747 3.15527 204.812 3.15527H199.978V9.36865H204.812C205.902 9.36865 206.785 9.13672 207.46 8.67285C208.144 8.20898 208.486 7.39111 208.486 6.21924ZM214.541 1.06787H216.994V19H214.541V1.06787ZM233.999 1.06787V3.2041H227.956V19H225.49V3.2041H219.448V1.06787H233.999ZM243.789 0.57959C246.059 0.57959 247.821 1.17773 249.074 2.37402C250.327 3.57031 251.023 4.92936 251.162 6.45117H248.793C248.525 5.29557 247.988 4.38005 247.182 3.70459C246.385 3.02913 245.262 2.69141 243.813 2.69141C242.047 2.69141 240.619 3.31396 239.528 4.55908C238.446 5.79606 237.905 7.69629 237.905 10.2598C237.905 12.3594 238.393 14.0643 239.37 15.3745C240.354 16.6766 241.819 17.3276 243.764 17.3276C245.555 17.3276 246.918 16.64 247.854 15.2646C248.35 14.5404 248.72 13.5882 248.964 12.4082H251.333C251.121 14.2962 250.421 15.8791 249.233 17.1567C247.809 18.6948 245.888 19.4639 243.471 19.4639C241.388 19.4639 239.638 18.8332 238.222 17.5718C236.359 15.9035 235.427 13.3278 235.427 9.84473C235.427 7.19987 236.127 5.03109 237.526 3.33838C239.04 1.49919 241.127 0.57959 243.789 0.57959ZM254.36 1.06787H256.813V8.47754H266.14V1.06787H268.593V19H266.14V10.6138H256.813V19H254.36V1.06787ZM272.597 16.3389H275.148V19H272.597V16.3389ZM286.281 1.06787H288.71V16.8638H297.792V19H286.281V1.06787ZM300.429 1.06787H313.503V3.26514H302.797V8.70947H312.697V10.7847H302.797V16.8638H313.686V19H300.429V1.06787ZM326.076 11.6514L323.354 3.729L320.461 11.6514H326.076ZM322.084 1.06787H324.831L331.337 19H328.676L326.857 13.6289H319.765L317.824 19H315.334L322.084 1.06787ZM341.884 9.2832C343.024 9.2832 343.923 9.05534 344.582 8.59961C345.249 8.14388 345.583 7.32194 345.583 6.13379C345.583 4.85612 345.119 3.98535 344.191 3.52148C343.695 3.27734 343.032 3.15527 342.202 3.15527H336.269V9.2832H341.884ZM333.84 1.06787H342.141C343.508 1.06787 344.635 1.26725 345.522 1.66602C347.207 2.43099 348.049 3.84294 348.049 5.90186C348.049 6.97607 347.825 7.85498 347.377 8.53857C346.938 9.22217 346.319 9.77148 345.522 10.1865C346.222 10.4714 346.747 10.8457 347.097 11.3096C347.455 11.7734 347.654 12.5262 347.695 13.5679L347.78 15.9727C347.805 16.6562 347.862 17.1649 347.951 17.4985C348.098 18.0682 348.358 18.4344 348.732 18.5972V19H345.754C345.673 18.8454 345.607 18.646 345.559 18.4019C345.51 18.1577 345.469 17.6857 345.437 16.9858L345.29 13.9951C345.233 12.8232 344.798 12.0379 343.984 11.6392C343.52 11.4194 342.792 11.3096 341.799 11.3096H336.269V19H333.84V1.06787ZM351.613 1.06787H354.482L363.54 15.5942V1.06787H365.847V19H363.125L353.933 4.48584V19H351.613V1.06787ZM369.912 16.3389H372.463V19H369.912V16.3389Z" fill="#5E4EB7"/>
</svg>
