<svg width="298" height="211" viewBox="0 0 298 211" fill="none" xmlns="http://www.w3.org/2000/svg">
<path d="M16.3564 57.5615C16.8577 61.1781 17.8424 63.8815 19.3105 65.6719C21.9961 68.9303 26.5973 70.5596 33.1143 70.5596C37.0173 70.5596 40.1862 70.1299 42.6211 69.2705C47.2402 67.6234 49.5498 64.5618 49.5498 60.0859C49.5498 57.472 48.404 55.4489 46.1123 54.0166C43.8206 52.6201 40.222 51.3848 35.3164 50.3105L26.9375 48.4307C18.7018 46.5687 13.0085 44.5456 9.85742 42.3613C4.52214 38.709 1.85449 32.9977 1.85449 25.2275C1.85449 18.1377 4.43262 12.2474 9.58887 7.55664C14.7451 2.86589 22.3184 0.520508 32.3086 0.520508C40.6517 0.520508 47.7594 2.74056 53.6318 7.18066C59.54 11.585 62.6374 17.9945 62.9238 26.4092H47.0254C46.7389 21.6468 44.6621 18.263 40.7949 16.2578C38.2168 14.9329 35.012 14.2705 31.1807 14.2705C26.9196 14.2705 23.5179 15.1299 20.9756 16.8486C18.4333 18.5674 17.1621 20.9665 17.1621 24.0459C17.1621 26.8747 18.4154 28.9873 20.9219 30.3838C22.5332 31.3148 25.9707 32.4069 31.2344 33.6602L44.877 36.9365C50.8568 38.3688 55.3685 40.2845 58.4121 42.6836C63.1387 46.4076 65.502 51.7965 65.502 58.8506C65.502 66.0837 62.7269 72.0993 57.1768 76.8975C51.6624 81.6598 43.8564 84.041 33.7588 84.041C23.4463 84.041 15.3359 81.6956 9.42773 77.0049C3.51953 72.2783 0.56543 65.7972 0.56543 57.5615H16.3564ZM108.793 21.9512C112.41 21.9512 115.686 22.5778 118.622 23.8311C121.594 25.0843 124.029 27 125.927 29.5781C127.538 31.7624 128.523 34.0182 128.881 36.3457C129.239 38.6374 129.418 42.3971 129.418 47.625V82H113.788V46.3896C113.788 43.2386 113.251 40.6963 112.177 38.7627C110.78 36.0413 108.131 34.6807 104.228 34.6807C100.181 34.6807 97.1019 36.0413 94.9893 38.7627C92.9124 41.4482 91.874 45.2975 91.874 50.3105V82H76.6201V3.09863H91.874V31.082C94.0941 27.6803 96.6543 25.3171 99.5547 23.9922C102.491 22.6315 105.57 21.9512 108.793 21.9512ZM166.854 34.5195C163.31 34.5195 160.552 35.6296 158.583 37.8496C156.649 40.0697 155.432 43.0775 154.931 46.873H178.725C178.474 42.8268 177.239 39.7653 175.019 37.6885C172.834 35.5758 170.113 34.5195 166.854 34.5195ZM166.854 21.8975C171.724 21.8975 176.111 22.8105 180.014 24.6367C183.917 26.4629 187.139 29.3454 189.682 33.2842C191.973 36.7575 193.459 40.7858 194.14 45.3691C194.534 48.0547 194.695 51.9219 194.623 56.9707H154.555C154.77 62.8431 156.614 66.9609 160.087 69.3242C162.2 70.7923 164.742 71.5264 167.714 71.5264C170.865 71.5264 173.425 70.6312 175.395 68.8408C176.469 67.874 177.418 66.5312 178.241 64.8125H193.871C193.477 68.2858 191.669 71.8128 188.446 75.3936C183.433 81.0869 176.415 83.9336 167.392 83.9336C159.944 83.9336 153.373 81.5345 147.68 76.7363C141.986 71.9382 139.14 64.1322 139.14 53.3184C139.14 43.1849 141.7 35.4147 146.82 30.0078C151.977 24.6009 158.655 21.8975 166.854 21.8975ZM4.64746 129.099H15.4434V161.701H56.4785V129.099H67.2744V208H56.4785V171.101H15.4434V208H4.64746V129.099ZM89.9941 192.692C89.9941 195.485 91.0146 197.688 93.0557 199.299C95.0967 200.91 97.5137 201.716 100.307 201.716C103.708 201.716 107.003 200.928 110.189 199.353C115.561 196.739 118.246 192.46 118.246 186.516V178.728C117.064 179.479 115.543 180.106 113.681 180.607C111.819 181.109 109.993 181.467 108.202 181.682L102.348 182.434C98.8385 182.899 96.2067 183.633 94.4521 184.636C91.4801 186.319 89.9941 189.004 89.9941 192.692ZM113.412 173.142C115.632 172.855 117.118 171.924 117.87 170.349C118.3 169.489 118.515 168.254 118.515 166.643C118.515 163.348 117.333 160.967 114.97 159.499C112.642 157.995 109.294 157.243 104.926 157.243C99.877 157.243 96.2962 158.604 94.1836 161.325C93.002 162.829 92.2321 165.067 91.874 168.039H82.8506C83.0296 160.949 85.3213 156.026 89.7256 153.269C94.1657 150.476 99.304 149.079 105.141 149.079C111.908 149.079 117.405 150.368 121.63 152.946C125.819 155.524 127.914 159.535 127.914 164.978V198.117C127.914 199.12 128.111 199.925 128.505 200.534C128.935 201.143 129.812 201.447 131.137 201.447C131.566 201.447 132.05 201.429 132.587 201.394C133.124 201.322 133.697 201.232 134.306 201.125V208.269C132.802 208.698 131.656 208.967 130.868 209.074C130.08 209.182 129.006 209.235 127.646 209.235C124.315 209.235 121.898 208.054 120.395 205.69C119.607 204.437 119.052 202.665 118.729 200.373C116.76 202.951 113.931 205.189 110.243 207.087C106.555 208.985 102.491 209.934 98.0508 209.934C92.7155 209.934 88.347 208.322 84.9453 205.1C81.5794 201.841 79.8965 197.777 79.8965 192.907C79.8965 187.572 81.5615 183.436 84.8916 180.5C88.2217 177.564 92.5902 175.756 97.9971 175.075L113.412 173.142ZM165.995 148.811C172.476 148.811 177.74 150.386 181.786 153.537C185.868 156.688 188.321 162.113 189.145 169.812H179.745C179.172 166.267 177.865 163.33 175.824 161.003C173.783 158.64 170.507 157.458 165.995 157.458C159.836 157.458 155.432 160.466 152.782 166.481C151.063 170.384 150.204 175.201 150.204 180.93C150.204 186.695 151.422 191.547 153.856 195.485C156.291 199.424 160.123 201.394 165.351 201.394C169.361 201.394 172.53 200.176 174.857 197.741C177.221 195.271 178.85 191.905 179.745 187.644H189.145C188.07 195.271 185.385 200.856 181.088 204.401C176.791 207.91 171.295 209.665 164.599 209.665C157.079 209.665 151.081 206.926 146.605 201.447C142.13 195.933 139.892 189.058 139.892 180.822C139.892 170.725 142.344 162.865 147.25 157.243C152.156 151.621 158.404 148.811 165.995 148.811ZM198.598 129.099H207.89V174.914L232.704 150.476H245.058L223.036 172.014L246.293 208H233.939L216 178.996L207.89 186.408V208H198.598V129.099ZM259.56 189.953C259.846 193.176 260.652 195.646 261.977 197.365C264.411 200.48 268.637 202.038 274.652 202.038C278.233 202.038 281.384 201.268 284.105 199.729C286.827 198.153 288.188 195.736 288.188 192.478C288.188 190.007 287.095 188.127 284.911 186.838C283.515 186.05 280.757 185.137 276.64 184.099L268.959 182.165C264.053 180.948 260.437 179.587 258.109 178.083C253.956 175.469 251.879 171.853 251.879 167.233C251.879 161.791 253.83 157.386 257.733 154.021C261.672 150.655 266.954 148.972 273.578 148.972C282.243 148.972 288.492 151.514 292.323 156.599C294.722 159.821 295.886 163.295 295.814 167.019H286.684C286.505 164.834 285.735 162.847 284.374 161.057C282.154 158.514 278.305 157.243 272.826 157.243C269.174 157.243 266.399 157.941 264.501 159.338C262.639 160.734 261.708 162.578 261.708 164.87C261.708 167.377 262.943 169.382 265.414 170.886C266.846 171.781 268.959 172.569 271.752 173.249L278.144 174.807C285.09 176.49 289.745 178.119 292.108 179.694C295.868 182.165 297.748 186.05 297.748 191.35C297.748 196.47 295.797 200.892 291.894 204.616C288.026 208.34 282.118 210.202 274.169 210.202C265.611 210.202 259.542 208.269 255.961 204.401C252.416 200.498 250.518 195.682 250.268 189.953H259.56Z" fill="#5E4EB7"/>
</svg>
