<svg width="473" height="1126" viewBox="0 0 473 1126" fill="none" xmlns="http://www.w3.org/2000/svg">
<mask id="mask0" mask-type="alpha" maskUnits="userSpaceOnUse" x="0" y="0" width="473" height="1126">
<path d="M473 0L473 1126L253.5 1126L-4.9219e-05 1126L0 -2.06755e-05L473 0Z" fill="#12164F"/>
</mask>
<g mask="url(#mask0)">
<rect x="506" y="-82" width="1245" height="559" transform="rotate(90 506 -82)" fill="#12164F"/>
<path d="M432.5 -13.3296C397.333 29.7775 336.1 116.493 372.5 118.498C408.9 120.503 458 82.9094 478 63.8621" stroke="white" stroke-width="2"/>
<path d="M444.41 -8.81836C419.995 22.3054 377.482 84.9149 402.754 86.3625C428.026 87.8101 462.114 60.6673 476 46.9149" stroke="white" stroke-width="2"/>
<path d="M-45 -1.31571e-05L253.106 -1.26511e-07L256 0C256 29.9233 245.581 81.5111 203.904 48.4758C151.808 7.18159 138.784 39.4988 124.312 57.4527C109.841 75.4067 82.3461 166.972 46.1683 183.131C17.2259 196.057 -26.6699 162.184 -45 143.632L-45 -1.31571e-05Z" fill="#9097AE"/>
<path d="M258.061 85.9841C289.049 87.2124 322.122 16.8897 340 0L243.163 -4.23287e-06C236.012 34.3936 207.408 41.9684 194 41.4566C202.442 55.2755 227.073 84.7558 258.061 85.9841Z" fill="#EFB392"/>
<path d="M436.001 -5C405.858 31.929 353.373 106.216 384.573 107.934C415.772 109.652 457.857 77.4461 475 61.1286" stroke="white" stroke-width="2"/>
<path d="M-3.99388 237.773C19.9983 265.024 64.4985 326.759 50.5623 355.697C36.626 384.634 8.40856 374.278 -3.95811 365.483" stroke="white" stroke-width="2"/>
<path d="M-7.65308 251.968C9.28355 272.353 40.7411 318.162 31.0785 338.321C21.4159 358.48 1.58151 350.012 -7.12785 343.258" stroke="white" stroke-width="2"/>
<path d="M-6.44921 243.118C14.1322 266.564 52.3088 319.657 40.3644 344.465C28.42 369.273 4.21915 360.319 -6.3882 352.741" stroke="white" stroke-width="2"/>
<circle cx="430.5" cy="93.5" r="5.5" transform="rotate(90 430.5 93.5)" fill="#EFB392"/>
<circle cx="370" cy="81" r="3" transform="rotate(90 370 81)" fill="#EFB392"/>
<path d="M205.501 1066C177.501 1090.4 138.834 1117.17 123.001 1127.5L318.501 1127.5C386.101 1127.5 387.5 1128 403 1122.5C401.667 1110.17 409.901 1078.5 397.501 1078.5C382.001 1078.5 385.501 1066 361.001 1054C336.501 1042 332.001 1078.5 318.501 1091.5C305.001 1104.5 290.501 1093 278.501 1078.5C266.501 1064 240.501 1035.5 205.501 1066Z" fill="#EFB392"/>
<path d="M384.5 1011C364.1 999.8 356.667 1084 355.5 1127.5C362.833 1128.83 442.5 1147.5 473 1129.5C505.177 1110.51 470 1072 473 1032.5L473 884.5C472.333 885.833 468.5 888.8 458.5 890C446 891.5 443.5 911 436.5 931.5C429.5 952 419.5 951 414.5 978.5C409.5 1006 439.5 1033 428.5 1049.5C417.5 1066 410 1025 384.5 1011Z" fill="#9097AE"/>
<path d="M497.995 787.278C484.004 785.045 441.729 796.192 463.321 823.014C488.374 854.134 522.918 877.795 522.917 917.839C522.915 991.939 531.927 1049.38 497.995 1041.89C472.003 1036.16 486.039 984.093 463.321 979.357C430.184 972.449 443.247 1010.63 419.523 1064.23C395.799 1117.83 384.849 1068.7 352 1129" stroke="white" stroke-width="2"/>
<path d="M487.995 787.278C474.004 785.045 431.729 796.192 453.321 823.014C478.374 854.134 512.918 877.795 512.917 917.839C512.915 991.939 521.927 1049.38 487.995 1041.89C462.003 1036.16 476.039 984.093 453.321 979.357C420.184 972.449 433.247 1010.63 409.523 1064.23C385.799 1117.83 374.849 1068.7 342 1129" stroke="white" stroke-width="2"/>
<path d="M467.995 787.278C454.004 785.045 411.729 796.192 433.321 823.014C458.374 854.134 492.918 877.795 492.917 917.839C492.915 991.939 501.927 1049.38 467.995 1041.89C442.003 1036.16 456.039 984.093 433.321 979.357C400.184 972.449 413.247 1010.63 389.523 1064.23C365.799 1117.83 354.849 1068.7 322 1129" stroke="white" stroke-width="2"/>
<path d="M477.995 787.278C464.004 785.045 421.729 796.192 443.321 823.014C468.374 854.134 502.918 877.795 502.917 917.839C502.915 991.939 511.927 1049.38 477.995 1041.89C452.003 1036.16 466.039 984.093 443.321 979.357C410.184 972.449 423.247 1010.63 399.523 1064.23C375.799 1117.83 364.849 1068.7 332 1129" stroke="white" stroke-width="2"/>
<path d="M0.242401 39C179.852 164.532 425.079 371.549 322.962 443.699C280.533 473.677 161.601 499.907 82.4447 515.833C72.0163 517.931 4.79402 535.214 0.24244 541.792L0.24244 543C-0.0875464 542.655 -0.0741492 542.249 0.24244 541.792L0.242444 465.245C194.5 439.5 232.071 406.984 247 386.5C268.5 357 248.255 306.277 163 229.5C120.024 190.798 0.242459 116.31 0.242459 113.5L0.242401 39Z" fill="#D3787A"/>
</g>
</svg>
