<svg width="1126" height="473" viewBox="0 0 1126 473" fill="none" xmlns="http://www.w3.org/2000/svg">
<mask id="mask0" mask-type="alpha" maskUnits="userSpaceOnUse" x="0" y="0" width="1126" height="473">
<path d="M0 0H1126V219.5V473H0V0Z" fill="#12164F"/>
</mask>
<g mask="url(#mask0)">
<rect x="-82" y="-33" width="1245" height="559" fill="#12164F"/>
<path d="M-13.3291 40.5C29.7779 75.6667 116.493 136.9 118.498 100.5C120.503 64.1 82.9099 15 63.8626 -5" stroke="white" stroke-width="2"/>
<path d="M-8.81836 28.5896C22.3054 53.0049 84.9149 95.5178 86.3625 70.2461C87.8101 44.9745 60.6673 10.8855 46.9149 -3" stroke="white" stroke-width="2"/>
<path d="M0 518V219.894V217C29.9233 217 81.5111 227.419 48.4758 269.096C7.18159 321.192 39.4988 334.216 57.4527 348.688C75.4067 363.159 166.972 390.654 183.131 426.832C196.057 455.774 162.184 499.67 143.632 518H0Z" fill="#9097AE"/>
<path d="M85.9841 214.939C87.2124 183.951 16.8897 150.878 0 133V229.837C34.3936 236.988 41.9684 265.592 41.4566 279C55.2755 270.558 84.7558 245.927 85.9841 214.939Z" fill="#EFB392"/>
<path d="M-5 36.9995C31.929 67.1419 106.216 119.627 107.934 88.4273C109.652 57.2278 77.4461 15.1426 61.1286 -2" stroke="white" stroke-width="2"/>
<path d="M237.773 476.994C265.024 453.002 326.759 408.501 355.697 422.438C384.634 436.374 374.278 464.591 365.483 476.958" stroke="white" stroke-width="2"/>
<path d="M251.968 480.653C272.353 463.716 318.162 432.259 338.321 441.921C358.48 451.584 350.012 471.418 343.258 480.128" stroke="white" stroke-width="2"/>
<path d="M243.118 479.449C266.564 458.868 319.657 420.691 344.465 432.636C369.273 444.58 360.319 468.781 352.741 479.388" stroke="white" stroke-width="2"/>
<circle cx="93.5" cy="42.5" r="5.5" fill="#EFB392"/>
<circle cx="81" cy="103" r="3" fill="#EFB392"/>
<path d="M1066 267.499C1090.4 295.499 1117.17 334.166 1127.5 349.999V154.499C1127.5 86.8992 1128 85.5 1122.5 70C1110.17 71.3333 1078.5 63.0992 1078.5 75.4992C1078.5 90.9992 1066 87.4992 1054 111.999C1042 136.499 1078.5 140.999 1091.5 154.499C1104.5 167.999 1093 182.499 1078.5 194.499C1064 206.499 1035.5 232.499 1066 267.499Z" fill="#EFB392"/>
<path d="M1011 88.5C999.8 108.9 1084 116.333 1127.5 117.5C1128.83 110.167 1147.5 30.5001 1129.5 0.000109673C1110.51 -32.1773 1072 3.00007 1032.5 6.77109e-05H884.5C885.833 0.666735 888.8 4.50007 890 14.5001C891.5 27.0001 911 29.5001 931.5 36.5001C952 43.5001 951 53.5 978.5 58.5C1006 63.5 1033 33.5 1049.5 44.5C1066 55.5 1025 63 1011 88.5Z" fill="#9097AE"/>
<path d="M787.278 -24.9954C785.045 -11.0041 796.192 31.2707 823.014 9.6786C854.134 -15.374 877.795 -49.9182 917.839 -49.9169C991.939 -49.9146 1049.38 -58.9273 1041.89 -24.9954C1036.16 0.996907 984.093 -13.0386 979.357 9.67856C972.449 42.8161 1010.63 29.7529 1064.23 53.4772C1117.83 77.2014 1068.7 88.151 1129 121" stroke="white" stroke-width="2"/>
<path d="M787.278 -14.9954C785.045 -1.00411 796.192 41.2707 823.014 19.6786C854.134 -5.37403 877.795 -39.9182 917.839 -39.9169C991.939 -39.9146 1049.38 -48.9273 1041.89 -14.9954C1036.16 10.9969 984.093 -3.03864 979.357 19.6786C972.449 52.8161 1010.63 39.7529 1064.23 63.4772C1117.83 87.2014 1068.7 98.151 1129 131" stroke="white" stroke-width="2"/>
<path d="M787.278 5.00465C785.045 18.9959 796.192 61.2707 823.014 39.6786C854.134 14.626 877.795 -19.9182 917.839 -19.9169C991.939 -19.9146 1049.38 -28.9273 1041.89 5.00465C1036.16 30.9969 984.093 16.9614 979.357 39.6786C972.449 72.8161 1010.63 59.7529 1064.23 83.4772C1117.83 107.201 1068.7 118.151 1129 151" stroke="white" stroke-width="2"/>
<path d="M787.278 -4.99535C785.045 8.99589 796.192 51.2707 823.014 29.6786C854.134 4.62597 877.795 -29.9182 917.839 -29.9169C991.939 -29.9146 1049.38 -38.9273 1041.89 -4.99535C1036.16 20.9969 984.093 6.96136 979.357 29.6786C972.449 62.8161 1010.63 49.7529 1064.23 73.4772C1117.83 97.2014 1068.7 108.151 1129 141" stroke="white" stroke-width="2"/>
<path d="M39 472.758C164.532 293.148 371.549 47.9208 443.699 150.038C473.677 192.467 499.907 311.399 515.833 390.555C517.931 400.984 535.214 468.206 541.792 472.758H543C542.655 473.088 542.249 473.074 541.792 472.758H465.245C439.5 278.5 406.984 240.929 386.5 226C357 204.5 306.277 224.745 229.5 310C190.798 352.976 116.31 472.758 113.5 472.758L39 472.758Z" fill="#D3787A"/>
</g>
</svg>
