<svg width="1536" height="2326" viewBox="0 0 1536 2326" fill="none" xmlns="http://www.w3.org/2000/svg">
<rect y="466" width="1536" height="1860" fill="#144256"/>
<path d="M1536 491.848C1536 755.737 1035.93 969.662 771.996 969.662C508.058 969.662 0 755.737 0 491.848C0 227.959 389 -0.000472844 771.5 0C1110 0.000124991 1536 227.959 1536 491.848Z" fill="#144256"/>
<path d="M603.393 515.17L608.041 526.771L612.689 515.17H615.121V529.389H613.246V523.852L613.422 517.875L608.754 529.389H607.318L602.66 517.904L602.846 523.852V529.389H600.971V515.17H603.393ZM624.672 529.389C624.568 529.18 624.483 528.809 624.418 528.275C623.578 529.148 622.576 529.584 621.41 529.584C620.368 529.584 619.512 529.291 618.842 528.705C618.178 528.113 617.846 527.364 617.846 526.459C617.846 525.359 618.262 524.506 619.096 523.9C619.936 523.288 621.114 522.982 622.631 522.982H624.389V522.152C624.389 521.521 624.2 521.02 623.822 520.648C623.445 520.271 622.888 520.082 622.152 520.082C621.508 520.082 620.967 520.245 620.531 520.57C620.095 520.896 619.877 521.29 619.877 521.752H618.061C618.061 521.225 618.246 520.717 618.617 520.229C618.995 519.734 619.503 519.343 620.141 519.057C620.785 518.77 621.492 518.627 622.26 518.627C623.477 518.627 624.431 518.933 625.121 519.545C625.811 520.15 626.169 520.987 626.195 522.055V526.918C626.195 527.888 626.319 528.66 626.566 529.232V529.389H624.672ZM621.674 528.012C622.24 528.012 622.777 527.865 623.285 527.572C623.793 527.279 624.161 526.898 624.389 526.43V524.262H622.973C620.759 524.262 619.652 524.91 619.652 526.205C619.652 526.771 619.841 527.214 620.219 527.533C620.596 527.852 621.081 528.012 621.674 528.012ZM628.588 524.018C628.588 522.396 628.972 521.094 629.74 520.111C630.508 519.122 631.514 518.627 632.758 518.627C633.995 518.627 634.975 519.05 635.697 519.896V514.389H637.504V529.389H635.844L635.756 528.256C635.033 529.141 634.027 529.584 632.738 529.584C631.514 529.584 630.515 529.083 629.74 528.08C628.972 527.077 628.588 525.769 628.588 524.154V524.018ZM630.395 524.223C630.395 525.421 630.642 526.358 631.137 527.035C631.632 527.712 632.315 528.051 633.188 528.051C634.333 528.051 635.17 527.536 635.697 526.508V521.654C635.157 520.658 634.327 520.16 633.207 520.16C632.322 520.16 631.632 520.502 631.137 521.186C630.642 521.869 630.395 522.882 630.395 524.223ZM644.701 529.584C643.269 529.584 642.104 529.115 641.205 528.178C640.307 527.234 639.857 525.974 639.857 524.398V524.066C639.857 523.018 640.056 522.084 640.453 521.264C640.857 520.437 641.417 519.792 642.133 519.33C642.855 518.861 643.637 518.627 644.477 518.627C645.85 518.627 646.918 519.079 647.68 519.984C648.441 520.889 648.822 522.185 648.822 523.871V524.623H641.664C641.69 525.665 641.993 526.508 642.572 527.152C643.158 527.79 643.9 528.109 644.799 528.109C645.437 528.109 645.977 527.979 646.42 527.719C646.863 527.458 647.25 527.113 647.582 526.684L648.686 527.543C647.8 528.904 646.472 529.584 644.701 529.584ZM644.477 520.111C643.747 520.111 643.135 520.378 642.641 520.912C642.146 521.439 641.84 522.182 641.723 523.139H647.016V523.002C646.964 522.084 646.716 521.374 646.273 520.873C645.831 520.365 645.232 520.111 644.477 520.111ZM665.238 526.898L667.27 518.822H669.076L666 529.389H664.535L661.967 521.381L659.467 529.389H658.002L654.936 518.822H656.732L658.812 526.732L661.273 518.822H662.729L665.238 526.898ZM672.885 529.389H671.078V518.822H672.885V529.389ZM670.932 516.02C670.932 515.727 671.02 515.479 671.195 515.277C671.378 515.076 671.645 514.975 671.996 514.975C672.348 514.975 672.615 515.076 672.797 515.277C672.979 515.479 673.07 515.727 673.07 516.02C673.07 516.312 672.979 516.557 672.797 516.752C672.615 516.947 672.348 517.045 671.996 517.045C671.645 517.045 671.378 516.947 671.195 516.752C671.02 516.557 670.932 516.312 670.932 516.02ZM678.236 516.264V518.822H680.209V520.219H678.236V526.771C678.236 527.195 678.324 527.514 678.5 527.729C678.676 527.937 678.975 528.041 679.398 528.041C679.607 528.041 679.893 528.002 680.258 527.924V529.389C679.783 529.519 679.32 529.584 678.871 529.584C678.064 529.584 677.455 529.34 677.045 528.852C676.635 528.363 676.43 527.67 676.43 526.771V520.219H674.506V518.822H676.43V516.264H678.236ZM684.135 520.102C684.936 519.118 685.977 518.627 687.26 518.627C689.493 518.627 690.619 519.887 690.639 522.406V529.389H688.832V522.396C688.826 521.635 688.65 521.072 688.305 520.707C687.966 520.342 687.436 520.16 686.713 520.16C686.127 520.16 685.613 520.316 685.17 520.629C684.727 520.941 684.382 521.352 684.135 521.859V529.389H682.328V514.389H684.135V520.102ZM699.516 523.1L705.629 525.57V527.484L697.641 523.783V522.357L705.629 518.666V520.58L699.516 523.1ZM710.922 521.4H712.279C713.132 521.387 713.803 521.163 714.291 520.727C714.779 520.29 715.023 519.701 715.023 518.959C715.023 517.292 714.193 516.459 712.533 516.459C711.752 516.459 711.127 516.684 710.658 517.133C710.196 517.576 709.965 518.165 709.965 518.9H708.158C708.158 517.774 708.568 516.84 709.389 516.098C710.215 515.349 711.264 514.975 712.533 514.975C713.874 514.975 714.926 515.329 715.688 516.039C716.449 516.749 716.83 517.735 716.83 518.998C716.83 519.617 716.628 520.215 716.225 520.795C715.827 521.374 715.284 521.807 714.594 522.094C715.375 522.341 715.977 522.751 716.4 523.324C716.83 523.897 717.045 524.597 717.045 525.424C717.045 526.7 716.628 527.712 715.795 528.461C714.962 529.21 713.878 529.584 712.543 529.584C711.208 529.584 710.121 529.223 709.281 528.5C708.448 527.777 708.031 526.824 708.031 525.639H709.848C709.848 526.387 710.092 526.986 710.58 527.436C711.068 527.885 711.723 528.109 712.543 528.109C713.415 528.109 714.083 527.882 714.545 527.426C715.007 526.97 715.238 526.316 715.238 525.463C715.238 524.636 714.984 524.001 714.477 523.559C713.969 523.116 713.236 522.888 712.279 522.875H710.922V521.4ZM726.635 529.389H724.828V518.822H726.635V529.389ZM724.682 516.02C724.682 515.727 724.77 515.479 724.945 515.277C725.128 515.076 725.395 514.975 725.746 514.975C726.098 514.975 726.365 515.076 726.547 515.277C726.729 515.479 726.82 515.727 726.82 516.02C726.82 516.312 726.729 516.557 726.547 516.752C726.365 516.947 726.098 517.045 725.746 517.045C725.395 517.045 725.128 516.947 724.945 516.752C724.77 516.557 724.682 516.312 724.682 516.02ZM731.244 518.822L731.303 520.15C732.11 519.135 733.165 518.627 734.467 518.627C736.7 518.627 737.826 519.887 737.846 522.406V529.389H736.039V522.396C736.033 521.635 735.857 521.072 735.512 520.707C735.173 520.342 734.643 520.16 733.92 520.16C733.334 520.16 732.82 520.316 732.377 520.629C731.934 520.941 731.589 521.352 731.342 521.859V529.389H729.535V518.822H731.244ZM747.699 527.855H754.438V529.389H745.814V515.17H747.699V527.855ZM755.814 524.008C755.814 522.973 756.016 522.042 756.42 521.215C756.83 520.388 757.396 519.75 758.119 519.301C758.848 518.852 759.678 518.627 760.609 518.627C762.048 518.627 763.21 519.125 764.096 520.121C764.988 521.117 765.434 522.442 765.434 524.096V524.223C765.434 525.251 765.235 526.176 764.838 526.996C764.447 527.81 763.884 528.445 763.148 528.9C762.419 529.356 761.579 529.584 760.629 529.584C759.197 529.584 758.035 529.086 757.143 528.09C756.257 527.094 755.814 525.775 755.814 524.135V524.008ZM757.631 524.223C757.631 525.395 757.901 526.335 758.441 527.045C758.988 527.755 759.717 528.109 760.629 528.109C761.547 528.109 762.276 527.751 762.816 527.035C763.357 526.312 763.627 525.303 763.627 524.008C763.627 522.849 763.35 521.911 762.797 521.195C762.25 520.473 761.521 520.111 760.609 520.111C759.717 520.111 758.998 520.466 758.451 521.176C757.904 521.885 757.631 522.901 757.631 524.223ZM769.408 518.822L769.467 520.15C770.274 519.135 771.329 518.627 772.631 518.627C774.864 518.627 775.99 519.887 776.01 522.406V529.389H774.203V522.396C774.197 521.635 774.021 521.072 773.676 520.707C773.337 520.342 772.807 520.16 772.084 520.16C771.498 520.16 770.984 520.316 770.541 520.629C770.098 520.941 769.753 521.352 769.506 521.859V529.389H767.699V518.822H769.408ZM778.295 524.018C778.295 522.396 778.679 521.094 779.447 520.111C780.215 519.122 781.221 518.627 782.465 518.627C783.702 518.627 784.682 519.05 785.404 519.896V514.389H787.211V529.389H785.551L785.463 528.256C784.74 529.141 783.734 529.584 782.445 529.584C781.221 529.584 780.222 529.083 779.447 528.08C778.679 527.077 778.295 525.769 778.295 524.154V524.018ZM780.102 524.223C780.102 525.421 780.349 526.358 780.844 527.035C781.339 527.712 782.022 528.051 782.895 528.051C784.04 528.051 784.877 527.536 785.404 526.508V521.654C784.864 520.658 784.034 520.16 782.914 520.16C782.029 520.16 781.339 520.502 780.844 521.186C780.349 521.869 780.102 522.882 780.102 524.223ZM789.545 524.008C789.545 522.973 789.747 522.042 790.15 521.215C790.561 520.388 791.127 519.75 791.85 519.301C792.579 518.852 793.409 518.627 794.34 518.627C795.779 518.627 796.941 519.125 797.826 520.121C798.718 521.117 799.164 522.442 799.164 524.096V524.223C799.164 525.251 798.965 526.176 798.568 526.996C798.178 527.81 797.615 528.445 796.879 528.9C796.15 529.356 795.31 529.584 794.359 529.584C792.927 529.584 791.765 529.086 790.873 528.09C789.988 527.094 789.545 525.775 789.545 524.135V524.008ZM791.361 524.223C791.361 525.395 791.632 526.335 792.172 527.045C792.719 527.755 793.448 528.109 794.359 528.109C795.277 528.109 796.007 527.751 796.547 527.035C797.087 526.312 797.357 525.303 797.357 524.008C797.357 522.849 797.081 521.911 796.527 521.195C795.98 520.473 795.251 520.111 794.34 520.111C793.448 520.111 792.729 520.466 792.182 521.176C791.635 521.885 791.361 522.901 791.361 524.223ZM803.139 518.822L803.197 520.15C804.005 519.135 805.059 518.627 806.361 518.627C808.594 518.627 809.721 519.887 809.74 522.406V529.389H807.934V522.396C807.927 521.635 807.751 521.072 807.406 520.707C807.068 520.342 806.537 520.16 805.814 520.16C805.229 520.16 804.714 520.316 804.271 520.629C803.829 520.941 803.484 521.352 803.236 521.859V529.389H801.43V518.822H803.139ZM812.406 532.221L811.381 531.518C811.993 530.665 812.312 529.786 812.338 528.881V527.25H814.105V528.666C814.105 529.324 813.943 529.981 813.617 530.639C813.298 531.296 812.895 531.824 812.406 532.221ZM832.572 522.738C832.572 524.132 832.338 525.349 831.869 526.391C831.4 527.426 830.736 528.217 829.877 528.764C829.018 529.311 828.015 529.584 826.869 529.584C825.749 529.584 824.757 529.311 823.891 528.764C823.025 528.21 822.351 527.426 821.869 526.41C821.394 525.388 821.15 524.206 821.137 522.865V521.84C821.137 520.473 821.374 519.265 821.85 518.217C822.325 517.169 822.995 516.368 823.861 515.814C824.734 515.255 825.73 514.975 826.85 514.975C827.989 514.975 828.992 515.251 829.857 515.805C830.73 516.352 831.4 517.149 831.869 518.197C832.338 519.239 832.572 520.453 832.572 521.84V522.738ZM830.707 521.82C830.707 520.134 830.368 518.842 829.691 517.943C829.014 517.038 828.067 516.586 826.85 516.586C825.665 516.586 824.73 517.038 824.047 517.943C823.37 518.842 823.021 520.092 823.002 521.693V522.738C823.002 524.372 823.344 525.658 824.027 526.596C824.717 527.527 825.665 527.992 826.869 527.992C828.08 527.992 829.018 527.553 829.682 526.674C830.346 525.788 830.688 524.522 830.707 522.875V521.82ZM846.312 529.389H844.428L837.27 518.432V529.389H835.385V515.17H837.27L844.447 526.176V515.17H846.312V529.389Z" fill="#144256"/>
</svg>
