<svg width="1440" height="298" viewBox="0 0 1440 298" fill="none" xmlns="http://www.w3.org/2000/svg">
<path d="M1442 0.143555H0V255.455C0 255.455 156.564 305.825 208.433 296.943C339.5 274.5 414.25 206.425 487.514 202.797C544 200 620 226.5 620 226.5C620 226.5 699.5 258.938 733.024 267.423C800.5 284.5 835.908 289.235 917.407 267.423C966.719 254.225 1008.32 212.235 1056.2 187.483C1121.22 153.864 1133.56 135.113 1201 125.582C1240.5 120 1291.86 134.888 1357.32 187.483C1393.6 216.63 1442 246.97 1442 246.97V0.143555Z" fill="#FFEDE9"/>
</svg>
